<svg width="26" height="25" viewBox="0 0 26 25" fill="none" xmlns="http://www.w3.org/2000/svg">
<path d="M11.9279 0.691211C12.2272 -0.2301 13.5306 -0.2301 13.83 0.691211L16.1847 7.93829C16.3186 8.35031 16.7025 8.62927 17.1358 8.62927L24.7558 8.62927C25.7245 8.62927 26.1273 9.86889 25.3436 10.4383L19.1788 14.9172C18.8283 15.1719 18.6817 15.6232 18.8156 16.0353L21.1703 23.2823C21.4696 24.2037 20.4152 24.9698 19.6314 24.4004L13.4667 19.9214C13.1162 19.6668 12.6416 19.6668 12.2911 19.9214L6.1264 24.4004C5.34269 24.9698 4.28821 24.2037 4.58756 23.2823L6.94228 16.0353C7.07616 15.6232 6.9295 15.1719 6.57901 14.9172L0.414278 10.4383C-0.369436 9.86889 0.0333393 8.62927 1.00206 8.62927L8.62209 8.62927C9.05532 8.62927 9.43927 8.35031 9.57315 7.93829L11.9279 0.691211Z" fill="#2B293D"/>
</svg>
